<svg width="377" height="100" viewBox="0 0 377 100" fill="none" xmlns="http://www.w3.org/2000/svg">
<path fill-rule="evenodd" clip-rule="evenodd" d="M57.614 14.522C50.8897 14.522 45.4386 19.9731 45.4386 26.6974C45.4386 33.4217 50.8897 38.8728 57.614 38.8728C64.3383 38.8728 69.7895 33.4217 69.7895 26.6974C69.7895 19.9731 64.3383 14.522 57.614 14.522ZM33.8083 38.2085C46.4823 38.2085 56.7565 48.4827 56.7565 61.1567V79.965H45.3421V61.1567C45.3421 59.807 45.1102 58.5114 44.6842 57.3076L27.9179 74.0739L19.8467 66.0026L36.0154 49.8339C35.301 49.6955 34.5631 49.623 33.8083 49.623H15V38.2085H33.8083ZM81.7037 38.2085C69.0298 38.2085 58.7555 48.4827 58.7555 61.1567V79.965H70.17V61.1567C70.17 60.0994 70.3122 59.0753 70.5787 58.1026L88.1174 75.6413L96.1886 67.57L78.6501 50.0315C79.6227 49.7652 80.6466 49.623 81.7037 49.623H100.512V38.2085H81.7037Z" fill="white"/>
<path d="M142.073 19.724L161.033 66.511H161.647L161.128 40.8064V19.724H172.966V80H155.893L136.461 32.364H135.848L136.366 58.8704V80H124.481V19.724H142.073ZM200.522 81.2734C193.353 81.2734 187.913 79.434 184.203 75.7552C180.524 72.0764 178.685 66.8412 178.685 60.0495V53.7766C178.685 46.9535 180.524 41.7026 184.203 38.0238C187.913 34.3135 193.353 32.4584 200.522 32.4584C207.659 32.4584 213.067 34.3135 216.746 38.0238C220.425 41.7026 222.265 46.9535 222.265 53.7766V60.0495C222.265 66.8412 220.425 72.0764 216.746 75.7552C213.099 79.434 207.691 81.2734 200.522 81.2734ZM200.522 71.6048C203.666 71.6048 206.056 70.6615 207.691 68.7749C209.357 66.8883 210.19 64.1842 210.19 60.6626V53.1635C210.19 49.579 209.357 46.8435 207.691 44.9569C206.056 43.0389 203.666 42.0799 200.522 42.0799C197.346 42.0799 194.925 43.0389 193.258 44.9569C191.623 46.8435 190.806 49.579 190.806 53.1635V60.6626C190.806 64.1842 191.623 66.8883 193.258 68.7749C194.925 70.6615 197.346 71.6048 200.522 71.6048ZM244.967 80.9905C241.037 80.9905 237.893 80.4088 235.535 79.2454C233.208 78.0505 231.526 76.2583 230.488 73.8686C229.45 71.479 228.932 68.5391 228.932 65.0489V38.0709H240.911V63.2567C240.911 65.7721 241.477 67.6272 242.609 68.8221C243.773 69.9854 245.801 70.5671 248.693 70.5671C250.391 70.5671 252.026 70.3942 253.599 70.0483C255.171 69.671 256.617 69.1836 257.938 68.5862L256.9 78.6794C255.328 79.4026 253.52 79.9686 251.476 80.3773C249.464 80.7861 247.294 80.9905 244.967 80.9905ZM222.234 43.6363V34.1091H257.513L256.476 43.6363H222.234ZM229.073 35.0052L229.026 22.7425L241.053 21.5162L240.581 35.0052H229.073ZM282.046 81.1319C274.122 81.1319 268.227 79.3083 264.359 75.6609C260.492 72.0135 258.558 66.7311 258.558 59.8137V53.7766C258.558 46.9221 260.366 41.6554 263.982 37.9766C267.598 34.2978 272.849 32.4584 279.735 32.4584C284.389 32.4584 288.272 33.2759 291.385 34.9109C294.497 36.5459 296.824 38.8727 298.365 41.8912C299.937 44.8783 300.723 48.4628 300.723 52.6447V54.2954C300.723 55.4274 300.66 56.5908 300.534 57.7856C300.44 58.949 300.299 60.0495 300.11 61.0871H289.168C289.262 59.3577 289.309 57.7227 289.309 56.182C289.341 54.6099 289.357 53.1949 289.357 51.9372C289.357 49.7677 289.011 47.9283 288.319 46.419C287.627 44.8783 286.574 43.7149 285.159 42.9288C283.744 42.1428 281.936 41.7497 279.735 41.7497C276.496 41.7497 274.107 42.6459 272.566 44.4381C271.025 46.2303 270.255 48.7772 270.255 52.0787V56.3707L270.302 57.7384V61.3701C270.302 62.8165 270.522 64.1528 270.962 65.3791C271.434 66.6053 272.204 67.6744 273.273 68.5862C274.343 69.4666 275.757 70.1584 277.518 70.6615C279.311 71.1645 281.543 71.4161 284.216 71.4161C287.108 71.4161 289.86 71.1017 292.469 70.4728C295.111 69.8125 297.61 68.9321 299.968 67.8316L298.931 77.3588C296.824 78.5222 294.34 79.434 291.479 80.0943C288.649 80.7861 285.505 81.1319 282.046 81.1319ZM264.973 61.0871V53.0692H297.657V61.0871H264.973ZM321.521 81.1319C317.811 81.1319 314.509 80.7704 311.617 80.0472C308.755 79.3554 306.318 78.5693 304.306 77.6889L303.221 67.2185C305.611 68.319 308.236 69.278 311.098 70.0955C313.991 70.913 317.166 71.3218 320.625 71.3218C323.643 71.3218 325.829 70.9444 327.181 70.1898C328.533 69.4037 329.209 68.2404 329.209 66.6997V66.4167C329.209 65.3791 328.894 64.5301 328.266 63.8698C327.668 63.2095 326.599 62.6121 325.058 62.0776C323.518 61.5116 321.348 60.9142 318.55 60.2853C314.682 59.3735 311.617 58.3201 309.353 57.1253C307.12 55.899 305.517 54.4055 304.542 52.6447C303.567 50.8524 303.08 48.7143 303.08 46.2303V45.8059C303.08 41.4353 304.636 38.1495 307.749 35.9485C310.862 33.7161 315.468 32.5999 321.568 32.5999C325.184 32.5999 328.376 32.9614 331.143 33.6846C333.941 34.3764 336.268 35.2096 338.123 36.1843L339.208 45.8059C337.007 44.7683 334.538 43.9036 331.803 43.2118C329.067 42.4886 326.127 42.127 322.983 42.127C320.939 42.127 319.32 42.3 318.125 42.6459C316.962 42.9603 316.129 43.4162 315.626 44.0136C315.122 44.611 314.871 45.3342 314.871 46.1832V46.419C314.871 47.3623 315.138 48.1798 315.673 48.8715C316.239 49.5633 317.261 50.1921 318.738 50.7581C320.216 51.2926 322.291 51.8743 324.964 52.5032C328.863 53.3207 331.992 54.2797 334.35 55.3802C336.708 56.4807 338.422 57.8957 339.491 59.625C340.56 61.3229 341.094 63.5554 341.094 66.3223V66.8883C341.094 71.6676 339.475 75.2364 336.236 77.5946C332.998 79.9528 328.093 81.1319 321.521 81.1319ZM350.845 81.1319C348.518 81.1319 346.804 80.5188 345.704 79.2925C344.603 78.0663 344.053 76.3683 344.053 74.1988V73.7271C344.053 71.5261 344.603 69.8125 345.704 68.5862C346.804 67.36 348.518 66.7468 350.845 66.7468C353.14 66.7468 354.854 67.36 355.986 68.5862C357.118 69.8125 357.684 71.5261 357.684 73.7271V74.1988C357.684 76.3683 357.118 78.0663 355.986 79.2925C354.854 80.5188 353.14 81.1319 350.845 81.1319Z" fill="white"/>
</svg>
